<mxfile host="app.diagrams.net" agent="Mozilla/5.0 (Windows NT 10.0; Win64; x64) AppleWebKit/537.36 (KHTML, like Gecko) Chrome/131.0.0.0 Safari/537.36" version="26.0.5" pages="2">
  <diagram name="Page-1" id="JakWaRN01mSHdeH8cJNW">
    <mxGraphModel dx="1955" dy="1787" grid="1" gridSize="10" guides="1" tooltips="1" connect="1" arrows="1" fold="1" page="1" pageScale="1" pageWidth="850" pageHeight="1100" math="0" shadow="0">
      <root>
        <mxCell id="0" />
        <mxCell id="1" parent="0" />
        <mxCell id="euFXxWoorgvAxCJGVIgI-2" value="engineroom" style="rounded=0;whiteSpace=wrap;html=1;" vertex="1" parent="1">
          <mxGeometry x="110" y="120" width="120" height="60" as="geometry" />
        </mxCell>
        <mxCell id="euFXxWoorgvAxCJGVIgI-3" value="computer" style="rounded=0;whiteSpace=wrap;html=1;" vertex="1" parent="1">
          <mxGeometry x="520" y="120" width="120" height="60" as="geometry" />
        </mxCell>
        <mxCell id="euFXxWoorgvAxCJGVIgI-4" value="subject" style="rounded=0;whiteSpace=wrap;html=1;" vertex="1" parent="1">
          <mxGeometry x="370" y="360" width="120" height="60" as="geometry" />
        </mxCell>
        <mxCell id="euFXxWoorgvAxCJGVIgI-5" value="registration" style="rhombus;whiteSpace=wrap;html=1;" vertex="1" parent="1">
          <mxGeometry x="105" y="320" width="130" height="140" as="geometry" />
        </mxCell>
        <mxCell id="euFXxWoorgvAxCJGVIgI-10" style="edgeStyle=orthogonalEdgeStyle;rounded=0;orthogonalLoop=1;jettySize=auto;html=1;exitX=1;exitY=0.5;exitDx=0;exitDy=0;" edge="1" parent="1" source="euFXxWoorgvAxCJGVIgI-7" target="euFXxWoorgvAxCJGVIgI-3">
          <mxGeometry relative="1" as="geometry" />
        </mxCell>
        <mxCell id="euFXxWoorgvAxCJGVIgI-12" value="n" style="edgeLabel;html=1;align=center;verticalAlign=middle;resizable=0;points=[];" vertex="1" connectable="0" parent="euFXxWoorgvAxCJGVIgI-10">
          <mxGeometry x="-0.0867" y="-1" relative="1" as="geometry">
            <mxPoint as="offset" />
          </mxGeometry>
        </mxCell>
        <mxCell id="euFXxWoorgvAxCJGVIgI-62" value="N" style="edgeLabel;html=1;align=center;verticalAlign=middle;resizable=0;points=[];" vertex="1" connectable="0" parent="euFXxWoorgvAxCJGVIgI-10">
          <mxGeometry x="-0.1026" y="-4" relative="1" as="geometry">
            <mxPoint as="offset" />
          </mxGeometry>
        </mxCell>
        <mxCell id="euFXxWoorgvAxCJGVIgI-7" value="yes" style="rhombus;whiteSpace=wrap;html=1;" vertex="1" parent="1">
          <mxGeometry x="320" y="110" width="80" height="80" as="geometry" />
        </mxCell>
        <mxCell id="euFXxWoorgvAxCJGVIgI-21" value="&lt;u&gt;Room_id&lt;/u&gt;" style="ellipse;whiteSpace=wrap;html=1;" vertex="1" parent="1">
          <mxGeometry x="-60" y="-30" width="120" height="80" as="geometry" />
        </mxCell>
        <mxCell id="euFXxWoorgvAxCJGVIgI-22" value="Room_name" style="ellipse;whiteSpace=wrap;html=1;" vertex="1" parent="1">
          <mxGeometry x="80" y="-30" width="120" height="80" as="geometry" />
        </mxCell>
        <mxCell id="euFXxWoorgvAxCJGVIgI-23" value="Manager_name" style="ellipse;whiteSpace=wrap;html=1;" vertex="1" parent="1">
          <mxGeometry x="230" y="-30" width="120" height="80" as="geometry" />
        </mxCell>
        <mxCell id="euFXxWoorgvAxCJGVIgI-24" value="" style="endArrow=none;html=1;rounded=0;entryX=0.443;entryY=0.998;entryDx=0;entryDy=0;entryPerimeter=0;" edge="1" parent="1" target="euFXxWoorgvAxCJGVIgI-23">
          <mxGeometry width="50" height="50" relative="1" as="geometry">
            <mxPoint x="170" y="120" as="sourcePoint" />
            <mxPoint x="220" y="70" as="targetPoint" />
          </mxGeometry>
        </mxCell>
        <mxCell id="euFXxWoorgvAxCJGVIgI-25" value="" style="endArrow=none;html=1;rounded=0;entryX=0.5;entryY=1;entryDx=0;entryDy=0;" edge="1" parent="1" target="euFXxWoorgvAxCJGVIgI-22">
          <mxGeometry width="50" height="50" relative="1" as="geometry">
            <mxPoint x="170" y="120" as="sourcePoint" />
            <mxPoint x="220" y="70" as="targetPoint" />
          </mxGeometry>
        </mxCell>
        <mxCell id="euFXxWoorgvAxCJGVIgI-26" value="" style="endArrow=none;html=1;rounded=0;exitX=0.5;exitY=0;exitDx=0;exitDy=0;" edge="1" parent="1" source="euFXxWoorgvAxCJGVIgI-2">
          <mxGeometry width="50" height="50" relative="1" as="geometry">
            <mxPoint x="-50" y="100" as="sourcePoint" />
            <mxPoint y="50" as="targetPoint" />
            <Array as="points" />
          </mxGeometry>
        </mxCell>
        <mxCell id="euFXxWoorgvAxCJGVIgI-27" value="Storage" style="ellipse;whiteSpace=wrap;html=1;" vertex="1" parent="1">
          <mxGeometry x="740" y="50" width="120" height="80" as="geometry" />
        </mxCell>
        <mxCell id="euFXxWoorgvAxCJGVIgI-28" value="RAM" style="ellipse;whiteSpace=wrap;html=1;" vertex="1" parent="1">
          <mxGeometry x="660" y="-40" width="120" height="80" as="geometry" />
        </mxCell>
        <mxCell id="euFXxWoorgvAxCJGVIgI-29" value="CPU" style="ellipse;whiteSpace=wrap;html=1;" vertex="1" parent="1">
          <mxGeometry x="500" y="-40" width="120" height="80" as="geometry" />
        </mxCell>
        <mxCell id="euFXxWoorgvAxCJGVIgI-30" value="" style="endArrow=none;html=1;rounded=0;exitX=0.5;exitY=0;exitDx=0;exitDy=0;" edge="1" parent="1" source="euFXxWoorgvAxCJGVIgI-3">
          <mxGeometry width="50" height="50" relative="1" as="geometry">
            <mxPoint x="510" y="90" as="sourcePoint" />
            <mxPoint x="560" y="40" as="targetPoint" />
          </mxGeometry>
        </mxCell>
        <mxCell id="euFXxWoorgvAxCJGVIgI-31" value="" style="endArrow=none;html=1;rounded=0;exitX=0.5;exitY=0;exitDx=0;exitDy=0;entryX=0;entryY=0.5;entryDx=0;entryDy=0;" edge="1" parent="1" source="euFXxWoorgvAxCJGVIgI-3" target="euFXxWoorgvAxCJGVIgI-27">
          <mxGeometry width="50" height="50" relative="1" as="geometry">
            <mxPoint x="760" y="200" as="sourcePoint" />
            <mxPoint x="740" y="120" as="targetPoint" />
          </mxGeometry>
        </mxCell>
        <mxCell id="euFXxWoorgvAxCJGVIgI-32" value="" style="endArrow=none;html=1;rounded=0;exitX=0.5;exitY=0;exitDx=0;exitDy=0;" edge="1" parent="1" source="euFXxWoorgvAxCJGVIgI-3">
          <mxGeometry width="50" height="50" relative="1" as="geometry">
            <mxPoint x="740" y="120" as="sourcePoint" />
            <mxPoint x="720" y="40" as="targetPoint" />
          </mxGeometry>
        </mxCell>
        <mxCell id="euFXxWoorgvAxCJGVIgI-33" value="&lt;u&gt;Computer_ID&lt;/u&gt;" style="ellipse;whiteSpace=wrap;html=1;" vertex="1" parent="1">
          <mxGeometry x="370" y="-50" width="120" height="80" as="geometry" />
        </mxCell>
        <mxCell id="euFXxWoorgvAxCJGVIgI-35" value="" style="endArrow=none;html=1;rounded=0;entryX=0.5;entryY=0;entryDx=0;entryDy=0;" edge="1" parent="1" target="euFXxWoorgvAxCJGVIgI-3">
          <mxGeometry width="50" height="50" relative="1" as="geometry">
            <mxPoint x="430" y="30" as="sourcePoint" />
            <mxPoint x="510" y="90" as="targetPoint" />
          </mxGeometry>
        </mxCell>
        <mxCell id="euFXxWoorgvAxCJGVIgI-46" value="&lt;u&gt;Subject_ID&lt;/u&gt;" style="ellipse;whiteSpace=wrap;html=1;" vertex="1" parent="1">
          <mxGeometry x="600" y="270" width="120" height="80" as="geometry" />
        </mxCell>
        <mxCell id="euFXxWoorgvAxCJGVIgI-47" value="Subject_name" style="ellipse;whiteSpace=wrap;html=1;" vertex="1" parent="1">
          <mxGeometry x="600" y="370" width="120" height="80" as="geometry" />
        </mxCell>
        <mxCell id="euFXxWoorgvAxCJGVIgI-48" value="Subject_time" style="ellipse;whiteSpace=wrap;html=1;" vertex="1" parent="1">
          <mxGeometry x="600" y="470" width="120" height="80" as="geometry" />
        </mxCell>
        <mxCell id="euFXxWoorgvAxCJGVIgI-49" value="" style="endArrow=none;html=1;rounded=0;exitX=1;exitY=0.5;exitDx=0;exitDy=0;entryX=0;entryY=0.5;entryDx=0;entryDy=0;" edge="1" parent="1" source="euFXxWoorgvAxCJGVIgI-4" target="euFXxWoorgvAxCJGVIgI-48">
          <mxGeometry width="50" height="50" relative="1" as="geometry">
            <mxPoint x="650" y="500" as="sourcePoint" />
            <mxPoint x="700" y="450" as="targetPoint" />
          </mxGeometry>
        </mxCell>
        <mxCell id="euFXxWoorgvAxCJGVIgI-50" value="" style="endArrow=none;html=1;rounded=0;entryX=0;entryY=0.5;entryDx=0;entryDy=0;exitX=1;exitY=0.5;exitDx=0;exitDy=0;" edge="1" parent="1" source="euFXxWoorgvAxCJGVIgI-4" target="euFXxWoorgvAxCJGVIgI-47">
          <mxGeometry width="50" height="50" relative="1" as="geometry">
            <mxPoint x="650" y="475" as="sourcePoint" />
            <mxPoint x="700" y="425" as="targetPoint" />
          </mxGeometry>
        </mxCell>
        <mxCell id="euFXxWoorgvAxCJGVIgI-51" value="" style="endArrow=none;html=1;rounded=0;entryX=0;entryY=0.5;entryDx=0;entryDy=0;exitX=1;exitY=0.5;exitDx=0;exitDy=0;" edge="1" parent="1" source="euFXxWoorgvAxCJGVIgI-4" target="euFXxWoorgvAxCJGVIgI-46">
          <mxGeometry width="50" height="50" relative="1" as="geometry">
            <mxPoint x="650" y="400" as="sourcePoint" />
            <mxPoint x="700" y="350" as="targetPoint" />
          </mxGeometry>
        </mxCell>
        <mxCell id="euFXxWoorgvAxCJGVIgI-56" value="" style="endArrow=none;html=1;rounded=0;exitX=0.5;exitY=1;exitDx=0;exitDy=0;entryX=0.5;entryY=0;entryDx=0;entryDy=0;" edge="1" parent="1" source="euFXxWoorgvAxCJGVIgI-2" target="euFXxWoorgvAxCJGVIgI-5">
          <mxGeometry width="50" height="50" relative="1" as="geometry">
            <mxPoint x="400" y="480" as="sourcePoint" />
            <mxPoint x="450" y="430" as="targetPoint" />
          </mxGeometry>
        </mxCell>
        <mxCell id="euFXxWoorgvAxCJGVIgI-60" value="N" style="edgeLabel;html=1;align=center;verticalAlign=middle;resizable=0;points=[];" vertex="1" connectable="0" parent="euFXxWoorgvAxCJGVIgI-56">
          <mxGeometry x="0.6616" y="-4" relative="1" as="geometry">
            <mxPoint as="offset" />
          </mxGeometry>
        </mxCell>
        <mxCell id="euFXxWoorgvAxCJGVIgI-61" value="1" style="edgeLabel;html=1;align=center;verticalAlign=middle;resizable=0;points=[];" vertex="1" connectable="0" parent="euFXxWoorgvAxCJGVIgI-56">
          <mxGeometry x="-0.8306" y="-1" relative="1" as="geometry">
            <mxPoint as="offset" />
          </mxGeometry>
        </mxCell>
        <mxCell id="euFXxWoorgvAxCJGVIgI-58" value="registration_date" style="ellipse;whiteSpace=wrap;html=1;" vertex="1" parent="1">
          <mxGeometry x="110" y="530" width="120" height="80" as="geometry" />
        </mxCell>
        <mxCell id="euFXxWoorgvAxCJGVIgI-63" value="" style="endArrow=none;html=1;rounded=0;exitX=1;exitY=0.5;exitDx=0;exitDy=0;entryX=0;entryY=0.5;entryDx=0;entryDy=0;" edge="1" parent="1" source="euFXxWoorgvAxCJGVIgI-2" target="euFXxWoorgvAxCJGVIgI-7">
          <mxGeometry width="50" height="50" relative="1" as="geometry">
            <mxPoint x="350" y="360" as="sourcePoint" />
            <mxPoint x="400" y="310" as="targetPoint" />
          </mxGeometry>
        </mxCell>
        <mxCell id="euFXxWoorgvAxCJGVIgI-64" value="1" style="edgeLabel;html=1;align=center;verticalAlign=middle;resizable=0;points=[];" vertex="1" connectable="0" parent="euFXxWoorgvAxCJGVIgI-63">
          <mxGeometry x="-0.2596" y="-2" relative="1" as="geometry">
            <mxPoint as="offset" />
          </mxGeometry>
        </mxCell>
        <mxCell id="euFXxWoorgvAxCJGVIgI-65" value="" style="endArrow=none;html=1;rounded=0;exitX=1;exitY=0.5;exitDx=0;exitDy=0;entryX=0;entryY=0.5;entryDx=0;entryDy=0;" edge="1" parent="1" source="euFXxWoorgvAxCJGVIgI-5" target="euFXxWoorgvAxCJGVIgI-4">
          <mxGeometry width="50" height="50" relative="1" as="geometry">
            <mxPoint x="370" y="460" as="sourcePoint" />
            <mxPoint x="420" y="410" as="targetPoint" />
          </mxGeometry>
        </mxCell>
        <mxCell id="euFXxWoorgvAxCJGVIgI-66" value="1" style="edgeLabel;html=1;align=center;verticalAlign=middle;resizable=0;points=[];" vertex="1" connectable="0" parent="euFXxWoorgvAxCJGVIgI-65">
          <mxGeometry x="0.8496" relative="1" as="geometry">
            <mxPoint as="offset" />
          </mxGeometry>
        </mxCell>
        <mxCell id="euFXxWoorgvAxCJGVIgI-67" value="N" style="edgeLabel;html=1;align=center;verticalAlign=middle;resizable=0;points=[];" vertex="1" connectable="0" parent="euFXxWoorgvAxCJGVIgI-65">
          <mxGeometry x="-0.8796" y="-1" relative="1" as="geometry">
            <mxPoint as="offset" />
          </mxGeometry>
        </mxCell>
        <mxCell id="euFXxWoorgvAxCJGVIgI-68" value="" style="endArrow=none;html=1;rounded=0;exitX=0.5;exitY=1;exitDx=0;exitDy=0;entryX=0.5;entryY=0;entryDx=0;entryDy=0;" edge="1" parent="1" source="euFXxWoorgvAxCJGVIgI-5" target="euFXxWoorgvAxCJGVIgI-58">
          <mxGeometry width="50" height="50" relative="1" as="geometry">
            <mxPoint x="260" y="490" as="sourcePoint" />
            <mxPoint x="310" y="440" as="targetPoint" />
          </mxGeometry>
        </mxCell>
      </root>
    </mxGraphModel>
  </diagram>
  <diagram id="1wfKzjduhTXUd-aTybC8" name="Page-2">
    <mxGraphModel dx="1050" dy="1753" grid="1" gridSize="10" guides="1" tooltips="1" connect="1" arrows="1" fold="1" page="1" pageScale="1" pageWidth="850" pageHeight="1100" math="0" shadow="0">
      <root>
        <mxCell id="0" />
        <mxCell id="1" parent="0" />
        <mxCell id="FLFiLIKM92cKnZP5cHMD-1" value="Owner" style="rounded=0;whiteSpace=wrap;html=1;" vertex="1" parent="1">
          <mxGeometry x="120" y="80" width="120" height="60" as="geometry" />
        </mxCell>
        <mxCell id="FLFiLIKM92cKnZP5cHMD-2" value="Address" style="rounded=0;whiteSpace=wrap;html=1;" vertex="1" parent="1">
          <mxGeometry x="125" y="275" width="110" height="50" as="geometry" />
        </mxCell>
        <mxCell id="FLFiLIKM92cKnZP5cHMD-10" value="" style="endArrow=none;html=1;rounded=0;entryX=0.5;entryY=1;entryDx=0;entryDy=0;exitX=0.5;exitY=0;exitDx=0;exitDy=0;" edge="1" parent="1" target="FLFiLIKM92cKnZP5cHMD-1">
          <mxGeometry width="50" height="50" relative="1" as="geometry">
            <mxPoint x="180" y="270" as="sourcePoint" />
            <mxPoint x="450" y="310" as="targetPoint" />
          </mxGeometry>
        </mxCell>
        <mxCell id="FLFiLIKM92cKnZP5cHMD-11" value="1" style="edgeLabel;html=1;align=center;verticalAlign=middle;resizable=0;points=[];" vertex="1" connectable="0" parent="FLFiLIKM92cKnZP5cHMD-10">
          <mxGeometry x="0.6308" y="-2" relative="1" as="geometry">
            <mxPoint as="offset" />
          </mxGeometry>
        </mxCell>
        <mxCell id="FLFiLIKM92cKnZP5cHMD-12" value="N" style="edgeLabel;html=1;align=center;verticalAlign=middle;resizable=0;points=[];" vertex="1" connectable="0" parent="FLFiLIKM92cKnZP5cHMD-10">
          <mxGeometry x="-0.7846" y="-1" relative="1" as="geometry">
            <mxPoint as="offset" />
          </mxGeometry>
        </mxCell>
        <mxCell id="FLFiLIKM92cKnZP5cHMD-13" value="&lt;u&gt;Owner_id&lt;/u&gt;" style="ellipse;whiteSpace=wrap;html=1;" vertex="1" parent="1">
          <mxGeometry x="60" y="-70" width="120" height="80" as="geometry" />
        </mxCell>
        <mxCell id="FLFiLIKM92cKnZP5cHMD-14" value="" style="endArrow=none;html=1;rounded=0;exitX=0.5;exitY=1;exitDx=0;exitDy=0;entryX=0.5;entryY=0;entryDx=0;entryDy=0;" edge="1" parent="1" source="FLFiLIKM92cKnZP5cHMD-13" target="FLFiLIKM92cKnZP5cHMD-1">
          <mxGeometry width="50" height="50" relative="1" as="geometry">
            <mxPoint x="400" y="60" as="sourcePoint" />
            <mxPoint x="450" y="10" as="targetPoint" />
          </mxGeometry>
        </mxCell>
        <mxCell id="FLFiLIKM92cKnZP5cHMD-15" value="Owner_name" style="ellipse;whiteSpace=wrap;html=1;" vertex="1" parent="1">
          <mxGeometry x="190" y="-70" width="120" height="80" as="geometry" />
        </mxCell>
        <mxCell id="FLFiLIKM92cKnZP5cHMD-16" value="" style="endArrow=none;html=1;rounded=0;exitX=0.5;exitY=1;exitDx=0;exitDy=0;entryX=0.5;entryY=0;entryDx=0;entryDy=0;" edge="1" parent="1" source="FLFiLIKM92cKnZP5cHMD-15" target="FLFiLIKM92cKnZP5cHMD-1">
          <mxGeometry width="50" height="50" relative="1" as="geometry">
            <mxPoint x="400" y="60" as="sourcePoint" />
            <mxPoint x="450" y="10" as="targetPoint" />
          </mxGeometry>
        </mxCell>
        <mxCell id="FLFiLIKM92cKnZP5cHMD-17" value="Material&amp;nbsp;" style="rounded=0;whiteSpace=wrap;html=1;" vertex="1" parent="1">
          <mxGeometry x="440" y="80" width="120" height="60" as="geometry" />
        </mxCell>
        <mxCell id="FLFiLIKM92cKnZP5cHMD-18" value="&lt;u&gt;Material_id&amp;nbsp;&lt;/u&gt;" style="ellipse;whiteSpace=wrap;html=1;" vertex="1" parent="1">
          <mxGeometry x="360" y="-60" width="120" height="80" as="geometry" />
        </mxCell>
        <mxCell id="FLFiLIKM92cKnZP5cHMD-19" value="" style="endArrow=none;html=1;rounded=0;exitX=0.5;exitY=1;exitDx=0;exitDy=0;entryX=0.5;entryY=0;entryDx=0;entryDy=0;" edge="1" parent="1" source="FLFiLIKM92cKnZP5cHMD-18" target="FLFiLIKM92cKnZP5cHMD-17">
          <mxGeometry width="50" height="50" relative="1" as="geometry">
            <mxPoint x="550" y="50" as="sourcePoint" />
            <mxPoint x="600" as="targetPoint" />
          </mxGeometry>
        </mxCell>
        <mxCell id="FLFiLIKM92cKnZP5cHMD-20" value="Material_name&amp;nbsp;" style="ellipse;whiteSpace=wrap;html=1;" vertex="1" parent="1">
          <mxGeometry x="490" y="-60" width="120" height="80" as="geometry" />
        </mxCell>
        <mxCell id="FLFiLIKM92cKnZP5cHMD-21" value="" style="endArrow=none;html=1;rounded=0;exitX=0.5;exitY=0;exitDx=0;exitDy=0;entryX=0.5;entryY=1;entryDx=0;entryDy=0;" edge="1" parent="1" source="FLFiLIKM92cKnZP5cHMD-17" target="FLFiLIKM92cKnZP5cHMD-20">
          <mxGeometry width="50" height="50" relative="1" as="geometry">
            <mxPoint x="400" y="60" as="sourcePoint" />
            <mxPoint x="450" y="10" as="targetPoint" />
          </mxGeometry>
        </mxCell>
        <mxCell id="FLFiLIKM92cKnZP5cHMD-23" value="price" style="ellipse;whiteSpace=wrap;html=1;" vertex="1" parent="1">
          <mxGeometry x="620" y="-60" width="120" height="80" as="geometry" />
        </mxCell>
        <mxCell id="FLFiLIKM92cKnZP5cHMD-24" value="" style="endArrow=none;html=1;rounded=0;exitX=0.5;exitY=0;exitDx=0;exitDy=0;entryX=0.45;entryY=1.012;entryDx=0;entryDy=0;entryPerimeter=0;" edge="1" parent="1" source="FLFiLIKM92cKnZP5cHMD-17" target="FLFiLIKM92cKnZP5cHMD-23">
          <mxGeometry width="50" height="50" relative="1" as="geometry">
            <mxPoint x="670" y="110" as="sourcePoint" />
            <mxPoint x="720" y="60" as="targetPoint" />
          </mxGeometry>
        </mxCell>
      </root>
    </mxGraphModel>
  </diagram>
</mxfile>
